<svg width="1200" height="800" viewBox="0 0 1200 800" fill="none" xmlns="http://www.w3.org/2000/svg">
  <defs>
    <linearGradient id="g" x1="0" y1="0" x2="1" y2="1">
      <stop offset="0%" stop-color="#66BB6A"/>
      <stop offset="60%" stop-color="#A5D6A7"/>
      <stop offset="100%" stop-color="#FFFFFF"/>
    </linearGradient>
  </defs>
  <rect width="1200" height="800" fill="url(#g)"/>
  <!-- Fields -->
  <g opacity="0.9">
    <rect x="60" y="520" width="320" height="160" rx="16" fill="#e8f5e9" stroke="#a5d6a7"/>
    <rect x="420" y="520" width="320" height="160" rx="16" fill="#e8f5e9" stroke="#a5d6a7"/>
    <rect x="780" y="520" width="320" height="160" rx="16" fill="#e8f5e9" stroke="#a5d6a7"/>
    <path d="M60 600 C200 560 240 680 380 640" stroke="#66bb6a" stroke-width="6" fill="none"/>
    <path d="M420 600 C560 560 600 680 740 640" stroke="#66bb6a" stroke-width="6" fill="none"/>
    <path d="M780 600 C920 560 960 680 1100 640" stroke="#66bb6a" stroke-width="6" fill="none"/>
  </g>
  <!-- Barn -->
  <g transform="translate(180 360)">
    <rect x="0" y="0" width="180" height="120" rx="10" fill="#ffffff" stroke="#2E7D32" stroke-width="4"/>
    <polygon points="0,0 90,-60 180,0" fill="#a5d6a7" stroke="#2E7D32" stroke-width="4"/>
    <rect x="65" y="50" width="50" height="70" fill="#e8f5e9" stroke="#2E7D32"/>
  </g>
  <!-- Satellite -->
  <g transform="translate(880 160)">
    <circle cx="0" cy="0" r="30" fill="#ffffff" stroke="#2E7D32" stroke-width="4"/>
    <rect x="-90" y="-12" width="60" height="24" rx="6" fill="#a5d6a7" stroke="#2E7D32"/>
    <rect x="30" y="-12" width="60" height="24" rx="6" fill="#a5d6a7" stroke="#2E7D32"/>
    <path d="M-10 30 Q 0 80 60 120" stroke="#2E7D32" stroke-width="4" fill="none"/>
  </g>
  <text x="60" y="120" font-size="48" font-family="Poppins, Arial, sans-serif" fill="#2E7D32">NASA Farm Navigators</text>
  <text x="60" y="165" font-size="22" font-family="Nunito, Arial, sans-serif" fill="#2E7D32" opacity="0.8">Illustrative placeholder</text>
</svg>
